<mxfile host="Drawpyo" modified="2024-06-12T01:27:19" agent="Python 3.11, Drawpyo 0.01" version="21.6.5" type="device">
  <diagram name="Page-1" id="139986676681744">
    <mxGraphModel dx="2037" dy="830" grid="1" gridSize="10" guides="1" toolTips="1" connect="1" arrows="1" fold="1" page="1" pageScale="1" pageWidth="850" pageHeight="1100" math="0" shadow="0">
      <root>
        <mxCell id="0" />
        <mxCell id="1" parent="0" />
        <mxCell id="139986676716112" value="Node 1" style="whiteSpace=wrap;rounded=0;dashed=0;" vertex="1" parent="1">
  <mxGeometry x="100" y="100" width="120" height="80" as="geometry" />
</mxCell>
        <mxCell id="139986676716816" value="Node 2" style="whiteSpace=wrap;rounded=0;dashed=0;" vertex="1" parent="1">
  <mxGeometry x="330" y="100" width="120" height="80" as="geometry" />
</mxCell>
        <mxCell id="139986676717328" value="Node 3" style="whiteSpace=wrap;rounded=0;dashed=0;" vertex="1" parent="1">
  <mxGeometry x="100" y="280" width="120" height="80" as="geometry" />
</mxCell>
        <mxCell id="139986676717776" style="edgeStyle=orthogonalEdgeStyle;orthogonalLoop=1;rounded=0;jettySize=auto;" edge="1" parent="1" source="139986676716112" target="139986676717328" value="">
  <mxGeometry relative="1" as="geometry" />
</mxCell>
        <mxCell id="139986676718288" style="edgeStyle=orthogonalEdgeStyle;orthogonalLoop=1;rounded=0;jettySize=auto;" edge="1" parent="1" source="139986676716112" target="139986676716816" value="">
  <mxGeometry relative="1" as="geometry" />
</mxCell>
      </root>
    </mxGraphModel>
  </diagram>
</mxfile>